<?xml version="1.0" encoding="UTF-8" standalone="no"?>
<svg
   xmlns:dc="http://purl.org/dc/elements/1.1/"
   xmlns:cc="http://creativecommons.org/ns#"
   xmlns:rdf="http://www.w3.org/1999/02/22-rdf-syntax-ns#"
   xmlns:svg="http://www.w3.org/2000/svg"
   xmlns="http://www.w3.org/2000/svg"
   xmlns:sodipodi="http://sodipodi.sourceforge.net/DTD/sodipodi-0.dtd"
   xmlns:inkscape="http://www.inkscape.org/namespaces/inkscape"
   version="1.1"
   id="svg2"
   xml:space="preserve"
   width="2560"
   height="1666.6667"
   viewBox="0 0 2560 1666.6667"
   sodipodi:docname="imdb-internet-movie-database-seeklogo.com.ai"><metadata
     id="metadata8"><rdf:RDF><cc:Work
         rdf:about=""><dc:format>image/svg+xml</dc:format><dc:type
           rdf:resource="http://purl.org/dc/dcmitype/StillImage" /></cc:Work></rdf:RDF></metadata><defs
     id="defs6"><clipPath
       clipPathUnits="userSpaceOnUse"
       id="clipPath18"><path
         d="M 0,1250 H 1920 V 0 H 0 Z"
         id="path16" /></clipPath><clipPath
       clipPathUnits="userSpaceOnUse"
       id="clipPath28"><path
         d="M -214.149,64.1221 H 214.149 V -64.1221 h -428.298 z"
         id="path26" /></clipPath><clipPath
       clipPathUnits="userSpaceOnUse"
       id="clipPath58"><path
         d="M -214.149,64.1221 H 214.149 V -64.1221 h -428.298 z"
         id="path56" /></clipPath><clipPath
       clipPathUnits="userSpaceOnUse"
       id="clipPath88"><path
         d="M -214.149,64.1221 H 214.149 V -64.1221 h -428.298 z"
         id="path86" /></clipPath><clipPath
       clipPathUnits="userSpaceOnUse"
       id="clipPath118"><path
         d="M -214.149,64.1221 H 214.149 V -64.1221 h -428.298 z"
         id="path116" /></clipPath><clipPath
       clipPathUnits="userSpaceOnUse"
       id="clipPath148"><path
         d="M -214.149,64.1221 H 214.149 V -64.1221 h -428.298 z"
         id="path146" /></clipPath><clipPath
       clipPathUnits="userSpaceOnUse"
       id="clipPath178"><path
         d="M -214.149,64.1221 H 214.149 V -64.1221 h -428.298 z"
         id="path176" /></clipPath><clipPath
       clipPathUnits="userSpaceOnUse"
       id="clipPath208"><path
         d="M -214.149,64.1221 H 214.149 V -64.1221 h -428.298 z"
         id="path206" /></clipPath><clipPath
       clipPathUnits="userSpaceOnUse"
       id="clipPath238"><path
         d="M -214.149,64.1221 H 214.149 V -64.1221 h -428.298 z"
         id="path236" /></clipPath></defs><sodipodi:namedview
     pagecolor="#ffffff"
     bordercolor="#666666"
     borderopacity="1"
     objecttolerance="10"
     gridtolerance="10"
     guidetolerance="10"
     inkscape:pageopacity="0"
     inkscape:pageshadow="2"
     inkscape:window-width="640"
     inkscape:window-height="480"
     id="namedview4" /><g
     id="g10"
     inkscape:groupmode="layer"
     inkscape:label="imdb-internet-movie-database-seeklogo.com"
     transform="matrix(1.3333333,0,0,-1.3333333,0,1666.6667)"><g
       id="g12"><g
         id="g14"
         clip-path="url(#clipPath18)"><g
           id="g20"
           transform="matrix(1,0,0,-1,321.22339,128.24414)"><g
             id="g22"><g
               id="g24"
               clip-path="url(#clipPath28)"><text
                 transform="translate(-214.1489,-54.0781)"
                 style="font-variant:normal;font-weight:normal;font-stretch:normal;font-size:12px;font-family:'Myriad Pro';-inkscape-font-specification:MyriadPro-Regular;writing-mode:lr-tb;fill:#000000;fill-opacity:1;fill-rule:nonzero;stroke:none"
                 id="text48"><tspan
                   x="0 6.5040002 13.02 15.504 18.048 24.431999 32.424 38.268002 40.812 43.68 48.984001 54.995998 58.967999 61.776001 68.412003 71.220001 73.764 80.351997 83.183998 93.192001 98.975998 105.744 111.528 118.188 120.732 126.576 132.26401 137.7948 144.56281 150.5748 157.3428 160.1508 162.9828 168.9948 175.6548 178.19881 185.02679 187.83479 191.7588 194.3028 201.504 208.272 214.86 221.688 227.7 232.728 235.272 238.25999 241.092 243.924 250.536 255.28799 259.26001 263.12521 268.86121 272.76001 279.34799 283.272 288.29999 290.84399 298.88281 305.47079 310.22281 315.82681 321.61081 326.36279 329.17081 335.93881 338.7468"
                   y="0"
                   sodipodi:role="line"
                   id="tspan30">Bu, PDF İçeriği olmadan kaydedilen bir Adobe® Illustrator® Dosyasıdır</tspan><tspan
                   x="0"
                   y="14.4"
                   id="tspan32">.</tspan><tspan
                   x="0 6.5040002 13.116 15.66 22.427999 29.016001 33.768002 39.372002 45.060001 50.712002 53.52 56.063999 62.832001 65.639999 72.348 78.360001 82.283997 84.828003 91.440002 96.972 103.68 110.292 113.124 118.908 128.916 134.7 137.532 143.31599 147.17999 152.964 154.95599 160.5372 166.54919 170.52119 173.3532 179.3652 184.1172 188.0892 190.8972 194.8692 204.8772 210.88921 216.5172 219.0612 224.7132 230.7252 236.32919 242.1132 244.6572 250.44119 255.8172 265.8252 271.60919"
                   y="28.799999"
                   sodipodi:role="line"
                   id="tspan34">Bu dosyayı diğer uygulamalara Yerleştirmek veya açmak</tspan><tspan
                   x="0 2.8080001 8.184 10.992 17.652"
                   y="43.200001"
                   sodipodi:role="line"
                   id="tspan36">için </tspan><tspan
                   x="0 7.1999998 13.968 20.556 27.384001 33.396 35.939999 38.929199 41.7612 44.593201 51.2052 55.957199 59.929199 63.793201 69.529198 73.429199 80.017197 83.9412 86.485199 93.097198 98.629204 105.3372 111.9492 114.7812 120.5652 130.5732 136.35719 141.10921 143.91721 150.57719 157.3452 163.1292 169.7892 172.33321 178.71719 186.7092"
                   y="57.599998"
                   sodipodi:role="line"
                   id="tspan38">Adobe Illustrator uygulamasından PDF</tspan><tspan
                   x="0 7.7280002 13.38 19.992001 30 32.832001 39.444 41.987999 50.028 56.616001 61.368 66.972 72.755997 75.300003 83.568001 86.400002 93.012001 97.764 101.736 108.348 112.272 114.816 119.568 125.58 130.88519 136.8972 143.55721 149.5692 156.2052 159.0132 161.55721 164.3652 167.1972 173.2092 175.7532 181.2852 187.2972 193.9572 196.7652 203.5332 209.5452 216.2052 218.74921 224.5932 230.2812 235.8132 242.58121 248.5932 255.36121 258.16919 261.00119 271.00919 277.02121 279.85321 282.66119 289.4292 292.23721 295.52399 298.008 300.552 307.056"
                   y="72"
                   sodipodi:role="line"
                   id="tspan40">Uyumlu Dosya Oluştur seçeneği ile yeniden kaydedilmelidir. Bu</tspan><tspan
                   x="0 4.7519999 10.764 16.068001 22.08 28.74 34.751999 40.546799 43.0308 45.574799 52.774799 59.542801 66.130798 72.958801 78.970802 81.514801 84.5028 87.334801 90.166801 96.778801 101.5308 105.5028 109.3656 115.1028 119.0028 125.5908 129.5148 132.05881 138.8268 145.41479 150.16679 155.7708 161.55479 166.30679 169.11481"
                   y="86.400002"
                   sodipodi:role="line"
                   id="tspan42">seçenek, Adobe Illustrator dosyası </tspan><tspan
                   x="0 5.3039999 11.088 15.06 20.892 23.724001 26.532 29.076 35.771999 41.459999 46.990799 53.758801 59.770802 63.742802 66.286797 71.914803 78.5028 88.510803 95.122803 99.094803 105.7068 108.2508 113.9268 120.5388 123.3708 126.2028 131.9868 138.6468 141.4548 144.2868 150.0708 153.9348 159.7188 165.3468 167.89079 173.7348 179.42281 184.9548 191.72279 197.7348 204.50281 207.31081 210.14281 212.95081 216.92281 222.5508 228.56281 235.22279 237.7668 244.47479 251.06281 254.9868 261.59879 268.21078 272.1828 278.7948 281.6268 287.63879 294.2988 300.31079 306.97079 309.5148 312.50281 315.33481 318.16681 324.77881 329.53079 333.50281 337.36679 343.10281 347.00281 353.59079 357.5148 360.05881 368.09879 374.6868 381.39481 387.1788 390.0108 392.55481 398.02679 404.61481 408.58679 418.59479 424.33081"
                   y="100.8"
                   sodipodi:role="line"
                   id="tspan44">Farklı Kaydet komutu kullanılarak kaydedilirken görüntülenen Illustrator Doğal Format</tspan><tspan
                   x="0 5.9879999 12 17.304001 23.316 29.976 35.987999 41.82 44.652 50.664001 54.636002 57.444 59.987999 62.796001 65.627998 71.639999 75.612 78.419998 83.171997 85.980003 95.987999 98.531998 104.2068 110.8188 114.7908 121.4028 126.1548 132.7668 139.4268 146.19479 151.97881 154.5228 161.3508 167.9628 170.7948 177.4068 184.0668 190.6788 193.96561"
                   y="115.2"
                   sodipodi:role="line"
                   id="tspan46">Seçenekleri iletişim kutusunda bulunur.</tspan></text></g></g></g><g
           id="g50"
           transform="matrix(1,0,0,-1,321.22339,282.13712)"><g
             id="g52"><g
               id="g54"
               clip-path="url(#clipPath58)"><text
                 transform="translate(-214.1489,-54.0781)"
                 style="font-variant:normal;font-weight:normal;font-stretch:normal;font-size:12px;font-family:'Myriad Pro';-inkscape-font-specification:MyriadPro-Regular;writing-mode:lr-tb;fill:#000000;fill-opacity:1;fill-rule:nonzero;stroke:none"
                 id="text78"><tspan
                   x="0 6.5040002 13.02 15.504 18.048 24.431999 32.424 38.268002 40.812 43.68 48.984001 54.995998 58.967999 61.776001 68.412003 71.220001 73.764 80.351997 83.183998 93.192001 98.975998 105.744 111.528 118.188 120.732 126.576 132.26401 137.7948 144.56281 150.5748 157.3428 160.1508 162.9828 168.9948 175.6548 178.19881 185.02679 187.83479 191.7588 194.3028 201.504 208.272 214.86 221.688 227.7 232.728 235.272 238.25999 241.092 243.924 250.536 255.28799 259.26001 263.12521 268.86121 272.76001 279.34799 283.272 288.29999 290.84399 298.88281 305.47079 310.22281 315.82681 321.61081 326.36279 329.17081 335.93881 338.7468"
                   y="0"
                   sodipodi:role="line"
                   id="tspan60">Bu, PDF İçeriği olmadan kaydedilen bir Adobe® Illustrator® Dosyasıdır</tspan><tspan
                   x="0"
                   y="14.4"
                   id="tspan62">.</tspan><tspan
                   x="0 6.5040002 13.116 15.66 22.427999 29.016001 33.768002 39.372002 45.060001 50.712002 53.52 56.063999 62.832001 65.639999 72.348 78.360001 82.283997 84.828003 91.440002 96.972 103.68 110.292 113.124 118.908 128.916 134.7 137.532 143.31599 147.17999 152.964 154.95599 160.5372 166.54919 170.52119 173.3532 179.3652 184.1172 188.0892 190.8972 194.8692 204.8772 210.88921 216.5172 219.0612 224.7132 230.7252 236.32919 242.1132 244.6572 250.44119 255.8172 265.8252 271.60919"
                   y="28.799999"
                   sodipodi:role="line"
                   id="tspan64">Bu dosyayı diğer uygulamalara Yerleştirmek veya açmak</tspan><tspan
                   x="0 2.8080001 8.184 10.992 17.652"
                   y="43.200001"
                   sodipodi:role="line"
                   id="tspan66">için </tspan><tspan
                   x="0 7.1999998 13.968 20.556 27.384001 33.396 35.939999 38.929199 41.7612 44.593201 51.2052 55.957199 59.929199 63.793201 69.529198 73.429199 80.017197 83.9412 86.485199 93.097198 98.629204 105.3372 111.9492 114.7812 120.5652 130.5732 136.35719 141.10921 143.91721 150.57719 157.3452 163.1292 169.7892 172.33321 178.71719 186.7092"
                   y="57.599998"
                   sodipodi:role="line"
                   id="tspan68">Adobe Illustrator uygulamasından PDF</tspan><tspan
                   x="0 7.7280002 13.38 19.992001 30 32.832001 39.444 41.987999 50.028 56.616001 61.368 66.972 72.755997 75.300003 83.568001 86.400002 93.012001 97.764 101.736 108.348 112.272 114.816 119.568 125.58 130.88519 136.8972 143.55721 149.5692 156.2052 159.0132 161.55721 164.3652 167.1972 173.2092 175.7532 181.2852 187.2972 193.9572 196.7652 203.5332 209.5452 216.2052 218.74921 224.5932 230.2812 235.8132 242.58121 248.5932 255.36121 258.16919 261.00119 271.00919 277.02121 279.85321 282.66119 289.4292 292.23721 295.52399 298.008 300.552 307.056"
                   y="72"
                   sodipodi:role="line"
                   id="tspan70">Uyumlu Dosya Oluştur seçeneği ile yeniden kaydedilmelidir. Bu</tspan><tspan
                   x="0 4.7519999 10.764 16.068001 22.08 28.74 34.751999 40.546799 43.0308 45.574799 52.774799 59.542801 66.130798 72.958801 78.970802 81.514801 84.5028 87.334801 90.166801 96.778801 101.5308 105.5028 109.3656 115.1028 119.0028 125.5908 129.5148 132.05881 138.8268 145.41479 150.16679 155.7708 161.55479 166.30679 169.11481"
                   y="86.400002"
                   sodipodi:role="line"
                   id="tspan72">seçenek, Adobe Illustrator dosyası </tspan><tspan
                   x="0 5.3039999 11.088 15.06 20.892 23.724001 26.532 29.076 35.771999 41.459999 46.990799 53.758801 59.770802 63.742802 66.286797 71.914803 78.5028 88.510803 95.122803 99.094803 105.7068 108.2508 113.9268 120.5388 123.3708 126.2028 131.9868 138.6468 141.4548 144.2868 150.0708 153.9348 159.7188 165.3468 167.89079 173.7348 179.42281 184.9548 191.72279 197.7348 204.50281 207.31081 210.14281 212.95081 216.92281 222.5508 228.56281 235.22279 237.7668 244.47479 251.06281 254.9868 261.59879 268.21078 272.1828 278.7948 281.6268 287.63879 294.2988 300.31079 306.97079 309.5148 312.50281 315.33481 318.16681 324.77881 329.53079 333.50281 337.36679 343.10281 347.00281 353.59079 357.5148 360.05881 368.09879 374.6868 381.39481 387.1788 390.0108 392.55481 398.02679 404.61481 408.58679 418.59479 424.33081"
                   y="100.8"
                   sodipodi:role="line"
                   id="tspan74">Farklı Kaydet komutu kullanılarak kaydedilirken görüntülenen Illustrator Doğal Format</tspan><tspan
                   x="0 5.9879999 12 17.304001 23.316 29.976 35.987999 41.82 44.652 50.664001 54.636002 57.444 59.987999 62.796001 65.627998 71.639999 75.612 78.419998 83.171997 85.980003 95.987999 98.531998 104.2068 110.8188 114.7908 121.4028 126.1548 132.7668 139.4268 146.19479 151.97881 154.5228 161.3508 167.9628 170.7948 177.4068 184.0668 190.6788 193.96561"
                   y="115.2"
                   sodipodi:role="line"
                   id="tspan76">Seçenekleri iletişim kutusunda bulunur.</tspan></text></g></g></g><g
           id="g80"
           transform="matrix(1,0,0,-1,321.22339,436.03009)"><g
             id="g82"><g
               id="g84"
               clip-path="url(#clipPath88)"><text
                 transform="translate(-214.1489,-54.0781)"
                 style="font-variant:normal;font-weight:normal;font-stretch:normal;font-size:12px;font-family:'Myriad Pro';-inkscape-font-specification:MyriadPro-Regular;writing-mode:lr-tb;fill:#000000;fill-opacity:1;fill-rule:nonzero;stroke:none"
                 id="text108"><tspan
                   x="0 6.5040002 13.02 15.504 18.048 24.431999 32.424 38.268002 40.812 43.68 48.984001 54.995998 58.967999 61.776001 68.412003 71.220001 73.764 80.351997 83.183998 93.192001 98.975998 105.744 111.528 118.188 120.732 126.576 132.26401 137.7948 144.56281 150.5748 157.3428 160.1508 162.9828 168.9948 175.6548 178.19881 185.02679 187.83479 191.7588 194.3028 201.504 208.272 214.86 221.688 227.7 232.728 235.272 238.25999 241.092 243.924 250.536 255.28799 259.26001 263.12521 268.86121 272.76001 279.34799 283.272 288.29999 290.84399 298.88281 305.47079 310.22281 315.82681 321.61081 326.36279 329.17081 335.93881 338.7468"
                   y="0"
                   sodipodi:role="line"
                   id="tspan90">Bu, PDF İçeriği olmadan kaydedilen bir Adobe® Illustrator® Dosyasıdır</tspan><tspan
                   x="0"
                   y="14.4"
                   id="tspan92">.</tspan><tspan
                   x="0 6.5040002 13.116 15.66 22.427999 29.016001 33.768002 39.372002 45.060001 50.712002 53.52 56.063999 62.832001 65.639999 72.348 78.360001 82.283997 84.828003 91.440002 96.972 103.68 110.292 113.124 118.908 128.916 134.7 137.532 143.31599 147.17999 152.964 154.95599 160.5372 166.54919 170.52119 173.3532 179.3652 184.1172 188.0892 190.8972 194.8692 204.8772 210.88921 216.5172 219.0612 224.7132 230.7252 236.32919 242.1132 244.6572 250.44119 255.8172 265.8252 271.60919"
                   y="28.799999"
                   sodipodi:role="line"
                   id="tspan94">Bu dosyayı diğer uygulamalara Yerleştirmek veya açmak</tspan><tspan
                   x="0 2.8080001 8.184 10.992 17.652"
                   y="43.200001"
                   sodipodi:role="line"
                   id="tspan96">için </tspan><tspan
                   x="0 7.1999998 13.968 20.556 27.384001 33.396 35.939999 38.929199 41.7612 44.593201 51.2052 55.957199 59.929199 63.793201 69.529198 73.429199 80.017197 83.9412 86.485199 93.097198 98.629204 105.3372 111.9492 114.7812 120.5652 130.5732 136.35719 141.10921 143.91721 150.57719 157.3452 163.1292 169.7892 172.33321 178.71719 186.7092"
                   y="57.599998"
                   sodipodi:role="line"
                   id="tspan98">Adobe Illustrator uygulamasından PDF</tspan><tspan
                   x="0 7.7280002 13.38 19.992001 30 32.832001 39.444 41.987999 50.028 56.616001 61.368 66.972 72.755997 75.300003 83.568001 86.400002 93.012001 97.764 101.736 108.348 112.272 114.816 119.568 125.58 130.88519 136.8972 143.55721 149.5692 156.2052 159.0132 161.55721 164.3652 167.1972 173.2092 175.7532 181.2852 187.2972 193.9572 196.7652 203.5332 209.5452 216.2052 218.74921 224.5932 230.2812 235.8132 242.58121 248.5932 255.36121 258.16919 261.00119 271.00919 277.02121 279.85321 282.66119 289.4292 292.23721 295.52399 298.008 300.552 307.056"
                   y="72"
                   sodipodi:role="line"
                   id="tspan100">Uyumlu Dosya Oluştur seçeneği ile yeniden kaydedilmelidir. Bu</tspan><tspan
                   x="0 4.7519999 10.764 16.068001 22.08 28.74 34.751999 40.546799 43.0308 45.574799 52.774799 59.542801 66.130798 72.958801 78.970802 81.514801 84.5028 87.334801 90.166801 96.778801 101.5308 105.5028 109.3656 115.1028 119.0028 125.5908 129.5148 132.05881 138.8268 145.41479 150.16679 155.7708 161.55479 166.30679 169.11481"
                   y="86.400002"
                   sodipodi:role="line"
                   id="tspan102">seçenek, Adobe Illustrator dosyası </tspan><tspan
                   x="0 5.3039999 11.088 15.06 20.892 23.724001 26.532 29.076 35.771999 41.459999 46.990799 53.758801 59.770802 63.742802 66.286797 71.914803 78.5028 88.510803 95.122803 99.094803 105.7068 108.2508 113.9268 120.5388 123.3708 126.2028 131.9868 138.6468 141.4548 144.2868 150.0708 153.9348 159.7188 165.3468 167.89079 173.7348 179.42281 184.9548 191.72279 197.7348 204.50281 207.31081 210.14281 212.95081 216.92281 222.5508 228.56281 235.22279 237.7668 244.47479 251.06281 254.9868 261.59879 268.21078 272.1828 278.7948 281.6268 287.63879 294.2988 300.31079 306.97079 309.5148 312.50281 315.33481 318.16681 324.77881 329.53079 333.50281 337.36679 343.10281 347.00281 353.59079 357.5148 360.05881 368.09879 374.6868 381.39481 387.1788 390.0108 392.55481 398.02679 404.61481 408.58679 418.59479 424.33081"
                   y="100.8"
                   sodipodi:role="line"
                   id="tspan104">Farklı Kaydet komutu kullanılarak kaydedilirken görüntülenen Illustrator Doğal Format</tspan><tspan
                   x="0 5.9879999 12 17.304001 23.316 29.976 35.987999 41.82 44.652 50.664001 54.636002 57.444 59.987999 62.796001 65.627998 71.639999 75.612 78.419998 83.171997 85.980003 95.987999 98.531998 104.2068 110.8188 114.7908 121.4028 126.1548 132.7668 139.4268 146.19479 151.97881 154.5228 161.3508 167.9628 170.7948 177.4068 184.0668 190.6788 193.96561"
                   y="115.2"
                   sodipodi:role="line"
                   id="tspan106">Seçenekleri iletişim kutusunda bulunur.</tspan></text></g></g></g><g
           id="g110"
           transform="matrix(1,0,0,-1,321.22339,589.92303)"><g
             id="g112"><g
               id="g114"
               clip-path="url(#clipPath118)"><text
                 transform="translate(-214.1489,-54.0781)"
                 style="font-variant:normal;font-weight:normal;font-stretch:normal;font-size:12px;font-family:'Myriad Pro';-inkscape-font-specification:MyriadPro-Regular;writing-mode:lr-tb;fill:#000000;fill-opacity:1;fill-rule:nonzero;stroke:none"
                 id="text138"><tspan
                   x="0 6.5040002 13.02 15.504 18.048 24.431999 32.424 38.268002 40.812 43.68 48.984001 54.995998 58.967999 61.776001 68.412003 71.220001 73.764 80.351997 83.183998 93.192001 98.975998 105.744 111.528 118.188 120.732 126.576 132.26401 137.7948 144.56281 150.5748 157.3428 160.1508 162.9828 168.9948 175.6548 178.19881 185.02679 187.83479 191.7588 194.3028 201.504 208.272 214.86 221.688 227.7 232.728 235.272 238.25999 241.092 243.924 250.536 255.28799 259.26001 263.12521 268.86121 272.76001 279.34799 283.272 288.29999 290.84399 298.88281 305.47079 310.22281 315.82681 321.61081 326.36279 329.17081 335.93881 338.7468"
                   y="0"
                   sodipodi:role="line"
                   id="tspan120">Bu, PDF İçeriği olmadan kaydedilen bir Adobe® Illustrator® Dosyasıdır</tspan><tspan
                   x="0"
                   y="14.4"
                   id="tspan122">.</tspan><tspan
                   x="0 6.5040002 13.116 15.66 22.427999 29.016001 33.768002 39.372002 45.060001 50.712002 53.52 56.063999 62.832001 65.639999 72.348 78.360001 82.283997 84.828003 91.440002 96.972 103.68 110.292 113.124 118.908 128.916 134.7 137.532 143.31599 147.17999 152.964 154.95599 160.5372 166.54919 170.52119 173.3532 179.3652 184.1172 188.0892 190.8972 194.8692 204.8772 210.88921 216.5172 219.0612 224.7132 230.7252 236.32919 242.1132 244.6572 250.44119 255.8172 265.8252 271.60919"
                   y="28.799999"
                   sodipodi:role="line"
                   id="tspan124">Bu dosyayı diğer uygulamalara Yerleştirmek veya açmak</tspan><tspan
                   x="0 2.8080001 8.184 10.992 17.652"
                   y="43.200001"
                   sodipodi:role="line"
                   id="tspan126">için </tspan><tspan
                   x="0 7.1999998 13.968 20.556 27.384001 33.396 35.939999 38.929199 41.7612 44.593201 51.2052 55.957199 59.929199 63.793201 69.529198 73.429199 80.017197 83.9412 86.485199 93.097198 98.629204 105.3372 111.9492 114.7812 120.5652 130.5732 136.35719 141.10921 143.91721 150.57719 157.3452 163.1292 169.7892 172.33321 178.71719 186.7092"
                   y="57.599998"
                   sodipodi:role="line"
                   id="tspan128">Adobe Illustrator uygulamasından PDF</tspan><tspan
                   x="0 7.7280002 13.38 19.992001 30 32.832001 39.444 41.987999 50.028 56.616001 61.368 66.972 72.755997 75.300003 83.568001 86.400002 93.012001 97.764 101.736 108.348 112.272 114.816 119.568 125.58 130.88519 136.8972 143.55721 149.5692 156.2052 159.0132 161.55721 164.3652 167.1972 173.2092 175.7532 181.2852 187.2972 193.9572 196.7652 203.5332 209.5452 216.2052 218.74921 224.5932 230.2812 235.8132 242.58121 248.5932 255.36121 258.16919 261.00119 271.00919 277.02121 279.85321 282.66119 289.4292 292.23721 295.52399 298.008 300.552 307.056"
                   y="72"
                   sodipodi:role="line"
                   id="tspan130">Uyumlu Dosya Oluştur seçeneği ile yeniden kaydedilmelidir. Bu</tspan><tspan
                   x="0 4.7519999 10.764 16.068001 22.08 28.74 34.751999 40.546799 43.0308 45.574799 52.774799 59.542801 66.130798 72.958801 78.970802 81.514801 84.5028 87.334801 90.166801 96.778801 101.5308 105.5028 109.3656 115.1028 119.0028 125.5908 129.5148 132.05881 138.8268 145.41479 150.16679 155.7708 161.55479 166.30679 169.11481"
                   y="86.400002"
                   sodipodi:role="line"
                   id="tspan132">seçenek, Adobe Illustrator dosyası </tspan><tspan
                   x="0 5.3039999 11.088 15.06 20.892 23.724001 26.532 29.076 35.771999 41.459999 46.990799 53.758801 59.770802 63.742802 66.286797 71.914803 78.5028 88.510803 95.122803 99.094803 105.7068 108.2508 113.9268 120.5388 123.3708 126.2028 131.9868 138.6468 141.4548 144.2868 150.0708 153.9348 159.7188 165.3468 167.89079 173.7348 179.42281 184.9548 191.72279 197.7348 204.50281 207.31081 210.14281 212.95081 216.92281 222.5508 228.56281 235.22279 237.7668 244.47479 251.06281 254.9868 261.59879 268.21078 272.1828 278.7948 281.6268 287.63879 294.2988 300.31079 306.97079 309.5148 312.50281 315.33481 318.16681 324.77881 329.53079 333.50281 337.36679 343.10281 347.00281 353.59079 357.5148 360.05881 368.09879 374.6868 381.39481 387.1788 390.0108 392.55481 398.02679 404.61481 408.58679 418.59479 424.33081"
                   y="100.8"
                   sodipodi:role="line"
                   id="tspan134">Farklı Kaydet komutu kullanılarak kaydedilirken görüntülenen Illustrator Doğal Format</tspan><tspan
                   x="0 5.9879999 12 17.304001 23.316 29.976 35.987999 41.82 44.652 50.664001 54.636002 57.444 59.987999 62.796001 65.627998 71.639999 75.612 78.419998 83.171997 85.980003 95.987999 98.531998 104.2068 110.8188 114.7908 121.4028 126.1548 132.7668 139.4268 146.19479 151.97881 154.5228 161.3508 167.9628 170.7948 177.4068 184.0668 190.6788 193.96561"
                   y="115.2"
                   sodipodi:role="line"
                   id="tspan136">Seçenekleri iletişim kutusunda bulunur.</tspan></text></g></g></g><g
           id="g140"
           transform="matrix(1,0,0,-1,856.5957,128.24414)"><g
             id="g142"><g
               id="g144"
               clip-path="url(#clipPath148)"><text
                 transform="translate(-214.1489,-54.0781)"
                 style="font-variant:normal;font-weight:normal;font-stretch:normal;font-size:12px;font-family:'Myriad Pro';-inkscape-font-specification:MyriadPro-Regular;writing-mode:lr-tb;fill:#000000;fill-opacity:1;fill-rule:nonzero;stroke:none"
                 id="text168"><tspan
                   x="0 6.5040002 13.02 15.504 18.048 24.431999 32.424 38.268002 40.812 43.68 48.984001 54.995998 58.967999 61.776001 68.412003 71.220001 73.764 80.351997 83.183998 93.192001 98.975998 105.744 111.528 118.188 120.732 126.576 132.26401 137.7948 144.56281 150.5748 157.3428 160.1508 162.9828 168.9948 175.6548 178.19881 185.02679 187.83479 191.7588 194.3028 201.504 208.272 214.86 221.688 227.7 232.728 235.272 238.25999 241.092 243.924 250.536 255.28799 259.26001 263.12521 268.86121 272.76001 279.34799 283.272 288.29999 290.84399 298.88281 305.47079 310.22281 315.82681 321.61081 326.36279 329.17081 335.93881 338.7468"
                   y="0"
                   sodipodi:role="line"
                   id="tspan150">Bu, PDF İçeriği olmadan kaydedilen bir Adobe® Illustrator® Dosyasıdır</tspan><tspan
                   x="0"
                   y="14.4"
                   id="tspan152">.</tspan><tspan
                   x="0 6.5040002 13.116 15.66 22.427999 29.016001 33.768002 39.372002 45.060001 50.712002 53.52 56.063999 62.832001 65.639999 72.348 78.360001 82.283997 84.828003 91.440002 96.972 103.68 110.292 113.124 118.908 128.916 134.7 137.532 143.31599 147.17999 152.964 154.95599 160.5372 166.54919 170.52119 173.3532 179.3652 184.1172 188.0892 190.8972 194.8692 204.8772 210.88921 216.5172 219.0612 224.7132 230.7252 236.32919 242.1132 244.6572 250.44119 255.8172 265.8252 271.60919"
                   y="28.799999"
                   sodipodi:role="line"
                   id="tspan154">Bu dosyayı diğer uygulamalara Yerleştirmek veya açmak</tspan><tspan
                   x="0 2.8080001 8.184 10.992 17.652"
                   y="43.200001"
                   sodipodi:role="line"
                   id="tspan156">için </tspan><tspan
                   x="0 7.1999998 13.968 20.556 27.384001 33.396 35.939999 38.929199 41.7612 44.593201 51.2052 55.957199 59.929199 63.793201 69.529198 73.429199 80.017197 83.9412 86.485199 93.097198 98.629204 105.3372 111.9492 114.7812 120.5652 130.5732 136.35719 141.10921 143.91721 150.57719 157.3452 163.1292 169.7892 172.33321 178.71719 186.7092"
                   y="57.599998"
                   sodipodi:role="line"
                   id="tspan158">Adobe Illustrator uygulamasından PDF</tspan><tspan
                   x="0 7.7280002 13.38 19.992001 30 32.832001 39.444 41.987999 50.028 56.616001 61.368 66.972 72.755997 75.300003 83.568001 86.400002 93.012001 97.764 101.736 108.348 112.272 114.816 119.568 125.58 130.88519 136.8972 143.55721 149.5692 156.2052 159.0132 161.55721 164.3652 167.1972 173.2092 175.7532 181.2852 187.2972 193.9572 196.7652 203.5332 209.5452 216.2052 218.74921 224.5932 230.2812 235.8132 242.58121 248.5932 255.36121 258.16919 261.00119 271.00919 277.02121 279.85321 282.66119 289.4292 292.23721 295.52399 298.008 300.552 307.056"
                   y="72"
                   sodipodi:role="line"
                   id="tspan160">Uyumlu Dosya Oluştur seçeneği ile yeniden kaydedilmelidir. Bu</tspan><tspan
                   x="0 4.7519999 10.764 16.068001 22.08 28.74 34.751999 40.546799 43.0308 45.574799 52.774799 59.542801 66.130798 72.958801 78.970802 81.514801 84.5028 87.334801 90.166801 96.778801 101.5308 105.5028 109.3656 115.1028 119.0028 125.5908 129.5148 132.05881 138.8268 145.41479 150.16679 155.7708 161.55479 166.30679 169.11481"
                   y="86.400002"
                   sodipodi:role="line"
                   id="tspan162">seçenek, Adobe Illustrator dosyası </tspan><tspan
                   x="0 5.3039999 11.088 15.06 20.892 23.724001 26.532 29.076 35.771999 41.459999 46.990799 53.758801 59.770802 63.742802 66.286797 71.914803 78.5028 88.510803 95.122803 99.094803 105.7068 108.2508 113.9268 120.5388 123.3708 126.2028 131.9868 138.6468 141.4548 144.2868 150.0708 153.9348 159.7188 165.3468 167.89079 173.7348 179.42281 184.9548 191.72279 197.7348 204.50281 207.31081 210.14281 212.95081 216.92281 222.5508 228.56281 235.22279 237.7668 244.47479 251.06281 254.9868 261.59879 268.21078 272.1828 278.7948 281.6268 287.63879 294.2988 300.31079 306.97079 309.5148 312.50281 315.33481 318.16681 324.77881 329.53079 333.50281 337.36679 343.10281 347.00281 353.59079 357.5148 360.05881 368.09879 374.6868 381.39481 387.1788 390.0108 392.55481 398.02679 404.61481 408.58679 418.59479 424.33081"
                   y="100.8"
                   sodipodi:role="line"
                   id="tspan164">Farklı Kaydet komutu kullanılarak kaydedilirken görüntülenen Illustrator Doğal Format</tspan><tspan
                   x="0 5.9879999 12 17.304001 23.316 29.976 35.987999 41.82 44.652 50.664001 54.636002 57.444 59.987999 62.796001 65.627998 71.639999 75.612 78.419998 83.171997 85.980003 95.987999 98.531998 104.2068 110.8188 114.7908 121.4028 126.1548 132.7668 139.4268 146.19479 151.97881 154.5228 161.3508 167.9628 170.7948 177.4068 184.0668 190.6788 193.96561"
                   y="115.2"
                   sodipodi:role="line"
                   id="tspan166">Seçenekleri iletişim kutusunda bulunur.</tspan></text></g></g></g><g
           id="g170"
           transform="matrix(1,0,0,-1,856.5957,282.13712)"><g
             id="g172"><g
               id="g174"
               clip-path="url(#clipPath178)"><text
                 transform="translate(-214.1489,-54.0781)"
                 style="font-variant:normal;font-weight:normal;font-stretch:normal;font-size:12px;font-family:'Myriad Pro';-inkscape-font-specification:MyriadPro-Regular;writing-mode:lr-tb;fill:#000000;fill-opacity:1;fill-rule:nonzero;stroke:none"
                 id="text198"><tspan
                   x="0 6.5040002 13.02 15.504 18.048 24.431999 32.424 38.268002 40.812 43.68 48.984001 54.995998 58.967999 61.776001 68.412003 71.220001 73.764 80.351997 83.183998 93.192001 98.975998 105.744 111.528 118.188 120.732 126.576 132.26401 137.7948 144.56281 150.5748 157.3428 160.1508 162.9828 168.9948 175.6548 178.19881 185.02679 187.83479 191.7588 194.3028 201.504 208.272 214.86 221.688 227.7 232.728 235.272 238.25999 241.092 243.924 250.536 255.28799 259.26001 263.12521 268.86121 272.76001 279.34799 283.272 288.29999 290.84399 298.88281 305.47079 310.22281 315.82681 321.61081 326.36279 329.17081 335.93881 338.7468"
                   y="0"
                   sodipodi:role="line"
                   id="tspan180">Bu, PDF İçeriği olmadan kaydedilen bir Adobe® Illustrator® Dosyasıdır</tspan><tspan
                   x="0"
                   y="14.4"
                   id="tspan182">.</tspan><tspan
                   x="0 6.5040002 13.116 15.66 22.427999 29.016001 33.768002 39.372002 45.060001 50.712002 53.52 56.063999 62.832001 65.639999 72.348 78.360001 82.283997 84.828003 91.440002 96.972 103.68 110.292 113.124 118.908 128.916 134.7 137.532 143.31599 147.17999 152.964 154.95599 160.5372 166.54919 170.52119 173.3532 179.3652 184.1172 188.0892 190.8972 194.8692 204.8772 210.88921 216.5172 219.0612 224.7132 230.7252 236.32919 242.1132 244.6572 250.44119 255.8172 265.8252 271.60919"
                   y="28.799999"
                   sodipodi:role="line"
                   id="tspan184">Bu dosyayı diğer uygulamalara Yerleştirmek veya açmak</tspan><tspan
                   x="0 2.8080001 8.184 10.992 17.652"
                   y="43.200001"
                   sodipodi:role="line"
                   id="tspan186">için </tspan><tspan
                   x="0 7.1999998 13.968 20.556 27.384001 33.396 35.939999 38.929199 41.7612 44.593201 51.2052 55.957199 59.929199 63.793201 69.529198 73.429199 80.017197 83.9412 86.485199 93.097198 98.629204 105.3372 111.9492 114.7812 120.5652 130.5732 136.35719 141.10921 143.91721 150.57719 157.3452 163.1292 169.7892 172.33321 178.71719 186.7092"
                   y="57.599998"
                   sodipodi:role="line"
                   id="tspan188">Adobe Illustrator uygulamasından PDF</tspan><tspan
                   x="0 7.7280002 13.38 19.992001 30 32.832001 39.444 41.987999 50.028 56.616001 61.368 66.972 72.755997 75.300003 83.568001 86.400002 93.012001 97.764 101.736 108.348 112.272 114.816 119.568 125.58 130.88519 136.8972 143.55721 149.5692 156.2052 159.0132 161.55721 164.3652 167.1972 173.2092 175.7532 181.2852 187.2972 193.9572 196.7652 203.5332 209.5452 216.2052 218.74921 224.5932 230.2812 235.8132 242.58121 248.5932 255.36121 258.16919 261.00119 271.00919 277.02121 279.85321 282.66119 289.4292 292.23721 295.52399 298.008 300.552 307.056"
                   y="72"
                   sodipodi:role="line"
                   id="tspan190">Uyumlu Dosya Oluştur seçeneği ile yeniden kaydedilmelidir. Bu</tspan><tspan
                   x="0 4.7519999 10.764 16.068001 22.08 28.74 34.751999 40.546799 43.0308 45.574799 52.774799 59.542801 66.130798 72.958801 78.970802 81.514801 84.5028 87.334801 90.166801 96.778801 101.5308 105.5028 109.3656 115.1028 119.0028 125.5908 129.5148 132.05881 138.8268 145.41479 150.16679 155.7708 161.55479 166.30679 169.11481"
                   y="86.400002"
                   sodipodi:role="line"
                   id="tspan192">seçenek, Adobe Illustrator dosyası </tspan><tspan
                   x="0 5.3039999 11.088 15.06 20.892 23.724001 26.532 29.076 35.771999 41.459999 46.990799 53.758801 59.770802 63.742802 66.286797 71.914803 78.5028 88.510803 95.122803 99.094803 105.7068 108.2508 113.9268 120.5388 123.3708 126.2028 131.9868 138.6468 141.4548 144.2868 150.0708 153.9348 159.7188 165.3468 167.89079 173.7348 179.42281 184.9548 191.72279 197.7348 204.50281 207.31081 210.14281 212.95081 216.92281 222.5508 228.56281 235.22279 237.7668 244.47479 251.06281 254.9868 261.59879 268.21078 272.1828 278.7948 281.6268 287.63879 294.2988 300.31079 306.97079 309.5148 312.50281 315.33481 318.16681 324.77881 329.53079 333.50281 337.36679 343.10281 347.00281 353.59079 357.5148 360.05881 368.09879 374.6868 381.39481 387.1788 390.0108 392.55481 398.02679 404.61481 408.58679 418.59479 424.33081"
                   y="100.8"
                   sodipodi:role="line"
                   id="tspan194">Farklı Kaydet komutu kullanılarak kaydedilirken görüntülenen Illustrator Doğal Format</tspan><tspan
                   x="0 5.9879999 12 17.304001 23.316 29.976 35.987999 41.82 44.652 50.664001 54.636002 57.444 59.987999 62.796001 65.627998 71.639999 75.612 78.419998 83.171997 85.980003 95.987999 98.531998 104.2068 110.8188 114.7908 121.4028 126.1548 132.7668 139.4268 146.19479 151.97881 154.5228 161.3508 167.9628 170.7948 177.4068 184.0668 190.6788 193.96561"
                   y="115.2"
                   sodipodi:role="line"
                   id="tspan196">Seçenekleri iletişim kutusunda bulunur.</tspan></text></g></g></g><g
           id="g200"
           transform="matrix(1,0,0,-1,856.5957,436.03009)"><g
             id="g202"><g
               id="g204"
               clip-path="url(#clipPath208)"><text
                 transform="translate(-214.1489,-54.0781)"
                 style="font-variant:normal;font-weight:normal;font-stretch:normal;font-size:12px;font-family:'Myriad Pro';-inkscape-font-specification:MyriadPro-Regular;writing-mode:lr-tb;fill:#000000;fill-opacity:1;fill-rule:nonzero;stroke:none"
                 id="text228"><tspan
                   x="0 6.5040002 13.02 15.504 18.048 24.431999 32.424 38.268002 40.812 43.68 48.984001 54.995998 58.967999 61.776001 68.412003 71.220001 73.764 80.351997 83.183998 93.192001 98.975998 105.744 111.528 118.188 120.732 126.576 132.26401 137.7948 144.56281 150.5748 157.3428 160.1508 162.9828 168.9948 175.6548 178.19881 185.02679 187.83479 191.7588 194.3028 201.504 208.272 214.86 221.688 227.7 232.728 235.272 238.25999 241.092 243.924 250.536 255.28799 259.26001 263.12521 268.86121 272.76001 279.34799 283.272 288.29999 290.84399 298.88281 305.47079 310.22281 315.82681 321.61081 326.36279 329.17081 335.93881 338.7468"
                   y="0"
                   sodipodi:role="line"
                   id="tspan210">Bu, PDF İçeriği olmadan kaydedilen bir Adobe® Illustrator® Dosyasıdır</tspan><tspan
                   x="0"
                   y="14.4"
                   id="tspan212">.</tspan><tspan
                   x="0 6.5040002 13.116 15.66 22.427999 29.016001 33.768002 39.372002 45.060001 50.712002 53.52 56.063999 62.832001 65.639999 72.348 78.360001 82.283997 84.828003 91.440002 96.972 103.68 110.292 113.124 118.908 128.916 134.7 137.532 143.31599 147.17999 152.964 154.95599 160.5372 166.54919 170.52119 173.3532 179.3652 184.1172 188.0892 190.8972 194.8692 204.8772 210.88921 216.5172 219.0612 224.7132 230.7252 236.32919 242.1132 244.6572 250.44119 255.8172 265.8252 271.60919"
                   y="28.799999"
                   sodipodi:role="line"
                   id="tspan214">Bu dosyayı diğer uygulamalara Yerleştirmek veya açmak</tspan><tspan
                   x="0 2.8080001 8.184 10.992 17.652"
                   y="43.200001"
                   sodipodi:role="line"
                   id="tspan216">için </tspan><tspan
                   x="0 7.1999998 13.968 20.556 27.384001 33.396 35.939999 38.929199 41.7612 44.593201 51.2052 55.957199 59.929199 63.793201 69.529198 73.429199 80.017197 83.9412 86.485199 93.097198 98.629204 105.3372 111.9492 114.7812 120.5652 130.5732 136.35719 141.10921 143.91721 150.57719 157.3452 163.1292 169.7892 172.33321 178.71719 186.7092"
                   y="57.599998"
                   sodipodi:role="line"
                   id="tspan218">Adobe Illustrator uygulamasından PDF</tspan><tspan
                   x="0 7.7280002 13.38 19.992001 30 32.832001 39.444 41.987999 50.028 56.616001 61.368 66.972 72.755997 75.300003 83.568001 86.400002 93.012001 97.764 101.736 108.348 112.272 114.816 119.568 125.58 130.88519 136.8972 143.55721 149.5692 156.2052 159.0132 161.55721 164.3652 167.1972 173.2092 175.7532 181.2852 187.2972 193.9572 196.7652 203.5332 209.5452 216.2052 218.74921 224.5932 230.2812 235.8132 242.58121 248.5932 255.36121 258.16919 261.00119 271.00919 277.02121 279.85321 282.66119 289.4292 292.23721 295.52399 298.008 300.552 307.056"
                   y="72"
                   sodipodi:role="line"
                   id="tspan220">Uyumlu Dosya Oluştur seçeneği ile yeniden kaydedilmelidir. Bu</tspan><tspan
                   x="0 4.7519999 10.764 16.068001 22.08 28.74 34.751999 40.546799 43.0308 45.574799 52.774799 59.542801 66.130798 72.958801 78.970802 81.514801 84.5028 87.334801 90.166801 96.778801 101.5308 105.5028 109.3656 115.1028 119.0028 125.5908 129.5148 132.05881 138.8268 145.41479 150.16679 155.7708 161.55479 166.30679 169.11481"
                   y="86.400002"
                   sodipodi:role="line"
                   id="tspan222">seçenek, Adobe Illustrator dosyası </tspan><tspan
                   x="0 5.3039999 11.088 15.06 20.892 23.724001 26.532 29.076 35.771999 41.459999 46.990799 53.758801 59.770802 63.742802 66.286797 71.914803 78.5028 88.510803 95.122803 99.094803 105.7068 108.2508 113.9268 120.5388 123.3708 126.2028 131.9868 138.6468 141.4548 144.2868 150.0708 153.9348 159.7188 165.3468 167.89079 173.7348 179.42281 184.9548 191.72279 197.7348 204.50281 207.31081 210.14281 212.95081 216.92281 222.5508 228.56281 235.22279 237.7668 244.47479 251.06281 254.9868 261.59879 268.21078 272.1828 278.7948 281.6268 287.63879 294.2988 300.31079 306.97079 309.5148 312.50281 315.33481 318.16681 324.77881 329.53079 333.50281 337.36679 343.10281 347.00281 353.59079 357.5148 360.05881 368.09879 374.6868 381.39481 387.1788 390.0108 392.55481 398.02679 404.61481 408.58679 418.59479 424.33081"
                   y="100.8"
                   sodipodi:role="line"
                   id="tspan224">Farklı Kaydet komutu kullanılarak kaydedilirken görüntülenen Illustrator Doğal Format</tspan><tspan
                   x="0 5.9879999 12 17.304001 23.316 29.976 35.987999 41.82 44.652 50.664001 54.636002 57.444 59.987999 62.796001 65.627998 71.639999 75.612 78.419998 83.171997 85.980003 95.987999 98.531998 104.2068 110.8188 114.7908 121.4028 126.1548 132.7668 139.4268 146.19479 151.97881 154.5228 161.3508 167.9628 170.7948 177.4068 184.0668 190.6788 193.96561"
                   y="115.2"
                   sodipodi:role="line"
                   id="tspan226">Seçenekleri iletişim kutusunda bulunur.</tspan></text></g></g></g><g
           id="g230"
           transform="matrix(1,0,0,-1,856.5957,589.92303)"><g
             id="g232"><g
               id="g234"
               clip-path="url(#clipPath238)"><text
                 transform="translate(-214.1489,-54.0781)"
                 style="font-variant:normal;font-weight:normal;font-stretch:normal;font-size:12px;font-family:'Myriad Pro';-inkscape-font-specification:MyriadPro-Regular;writing-mode:lr-tb;fill:#000000;fill-opacity:1;fill-rule:nonzero;stroke:none"
                 id="text258"><tspan
                   x="0 6.5040002 13.02 15.504 18.048 24.431999 32.424 38.268002 40.812 43.68 48.984001 54.995998 58.967999 61.776001 68.412003 71.220001 73.764 80.351997 83.183998 93.192001 98.975998 105.744 111.528 118.188 120.732 126.576 132.26401 137.7948 144.56281 150.5748 157.3428 160.1508 162.9828 168.9948 175.6548 178.19881 185.02679 187.83479 191.7588 194.3028 201.504 208.272 214.86 221.688 227.7 232.728 235.272 238.25999 241.092 243.924 250.536 255.28799 259.26001 263.12521 268.86121 272.76001 279.34799 283.272 288.29999 290.84399 298.88281 305.47079 310.22281 315.82681 321.61081 326.36279 329.17081 335.93881 338.7468"
                   y="0"
                   sodipodi:role="line"
                   id="tspan240">Bu, PDF İçeriği olmadan kaydedilen bir Adobe® Illustrator® Dosyasıdır</tspan><tspan
                   x="0"
                   y="14.4"
                   id="tspan242">.</tspan><tspan
                   x="0 6.5040002 13.116 15.66 22.427999 29.016001 33.768002 39.372002 45.060001 50.712002 53.52 56.063999 62.832001 65.639999 72.348 78.360001 82.283997 84.828003 91.440002 96.972 103.68 110.292 113.124 118.908 128.916 134.7 137.532 143.31599 147.17999 152.964 154.95599 160.5372 166.54919 170.52119 173.3532 179.3652 184.1172 188.0892 190.8972 194.8692 204.8772 210.88921 216.5172 219.0612 224.7132 230.7252 236.32919 242.1132 244.6572 250.44119 255.8172 265.8252 271.60919"
                   y="28.799999"
                   sodipodi:role="line"
                   id="tspan244">Bu dosyayı diğer uygulamalara Yerleştirmek veya açmak</tspan><tspan
                   x="0 2.8080001 8.184 10.992 17.652"
                   y="43.200001"
                   sodipodi:role="line"
                   id="tspan246">için </tspan><tspan
                   x="0 7.1999998 13.968 20.556 27.384001 33.396 35.939999 38.929199 41.7612 44.593201 51.2052 55.957199 59.929199 63.793201 69.529198 73.429199 80.017197 83.9412 86.485199 93.097198 98.629204 105.3372 111.9492 114.7812 120.5652 130.5732 136.35719 141.10921 143.91721 150.57719 157.3452 163.1292 169.7892 172.33321 178.71719 186.7092"
                   y="57.599998"
                   sodipodi:role="line"
                   id="tspan248">Adobe Illustrator uygulamasından PDF</tspan><tspan
                   x="0 7.7280002 13.38 19.992001 30 32.832001 39.444 41.987999 50.028 56.616001 61.368 66.972 72.755997 75.300003 83.568001 86.400002 93.012001 97.764 101.736 108.348 112.272 114.816 119.568 125.58 130.88519 136.8972 143.55721 149.5692 156.2052 159.0132 161.55721 164.3652 167.1972 173.2092 175.7532 181.2852 187.2972 193.9572 196.7652 203.5332 209.5452 216.2052 218.74921 224.5932 230.2812 235.8132 242.58121 248.5932 255.36121 258.16919 261.00119 271.00919 277.02121 279.85321 282.66119 289.4292 292.23721 295.52399 298.008 300.552 307.056"
                   y="72"
                   sodipodi:role="line"
                   id="tspan250">Uyumlu Dosya Oluştur seçeneği ile yeniden kaydedilmelidir. Bu</tspan><tspan
                   x="0 4.7519999 10.764 16.068001 22.08 28.74 34.751999 40.546799 43.0308 45.574799 52.774799 59.542801 66.130798 72.958801 78.970802 81.514801 84.5028 87.334801 90.166801 96.778801 101.5308 105.5028 109.3656 115.1028 119.0028 125.5908 129.5148 132.05881 138.8268 145.41479 150.16679 155.7708 161.55479 166.30679 169.11481"
                   y="86.400002"
                   sodipodi:role="line"
                   id="tspan252">seçenek, Adobe Illustrator dosyası </tspan><tspan
                   x="0 5.3039999 11.088 15.06 20.892 23.724001 26.532 29.076 35.771999 41.459999 46.990799 53.758801 59.770802 63.742802 66.286797 71.914803 78.5028 88.510803 95.122803 99.094803 105.7068 108.2508 113.9268 120.5388 123.3708 126.2028 131.9868 138.6468 141.4548 144.2868 150.0708 153.9348 159.7188 165.3468 167.89079 173.7348 179.42281 184.9548 191.72279 197.7348 204.50281 207.31081 210.14281 212.95081 216.92281 222.5508 228.56281 235.22279 237.7668 244.47479 251.06281 254.9868 261.59879 268.21078 272.1828 278.7948 281.6268 287.63879 294.2988 300.31079 306.97079 309.5148 312.50281 315.33481 318.16681 324.77881 329.53079 333.50281 337.36679 343.10281 347.00281 353.59079 357.5148 360.05881 368.09879 374.6868 381.39481 387.1788 390.0108 392.55481 398.02679 404.61481 408.58679 418.59479 424.33081"
                   y="100.8"
                   sodipodi:role="line"
                   id="tspan254">Farklı Kaydet komutu kullanılarak kaydedilirken görüntülenen Illustrator Doğal Format</tspan><tspan
                   x="0 5.9879999 12 17.304001 23.316 29.976 35.987999 41.82 44.652 50.664001 54.636002 57.444 59.987999 62.796001 65.627998 71.639999 75.612 78.419998 83.171997 85.980003 95.987999 98.531998 104.2068 110.8188 114.7908 121.4028 126.1548 132.7668 139.4268 146.19479 151.97881 154.5228 161.3508 167.9628 170.7948 177.4068 184.0668 190.6788 193.96561"
                   y="115.2"
                   sodipodi:role="line"
                   id="tspan256">Seçenekleri iletişim kutusunda bulunur.</tspan></text></g></g></g></g></g></g></svg>
